# xmcd CD database file generated by Grip 3.3.1
# 
# Track frame offsets:
#       150
#       43284
#       52963
#       86541
#       124070
#       181024
#       242996
#       261437
#       302657
# 
# Disc length: 4716 seconds
# 
# Revision: 1
# Processed by: cddbd v1.5.2PL0 Copyright (c) Steve Scherf et al.
# Submitted via: Grip 3.3.1
# 
DISCID=77126a09
DTITLE=Quartetto Italiano - Schubert - String Quartet 10,14,12
DYEAR=2016
DGENRE=Classical
TTITLE0=I. Allegro moderato - String Quartet No.10 in E flat major, D87
TTITLE1=II. Scherzo: Prestissimo - String Quartet No.10 in E flat major, 
TTITLE1=D87
TTITLE2=III. Adagio - String Quartet No.10 in E flat major, D87
TTITLE3=IV. Allegro - String Quartet No.10 in E flat major, D87
TTITLE4=I. Allegro - String Quartet No.14 in D minor, D810 "Death and the
TTITLE4=Maiden"
TTITLE5=II. Andante con moto - String Quartet No.14 in D minor, D810 "Dea
TTITLE5=th and the Maiden"
TTITLE6=III. Scherzo: Allegro molto - Trio - String Quartet No.14 in D mi
TTITLE6=nor, D810 "Death and the Maiden"
TTITLE7=IV. Presto - String Quartet No.14 in D minor, D810 "Death and the
TTITLE7=Maiden"
TTITLE8=Allegro assai - String Quartet No.12 in C minor, D703 "Quartettsa
TTITLE8=tz"
EXTD=
EXTT0=
EXTT1=
EXTT2=
EXTT3=
EXTT4=
EXTT5=
EXTT6=
EXTT7=
EXTT8=
PLAYORDER=
